<svg width="1200" height="960" viewBox="0 0 1200 960" fill="none" xmlns="http://www.w3.org/2000/svg">
  <defs>
    <linearGradient id="bg" x1="149" y1="72" x2="1028" y2="884" gradientUnits="userSpaceOnUse">
      <stop stop-color="#FFF7F4"/>
      <stop offset="1" stop-color="#F6ECE8"/>
    </linearGradient>
    <linearGradient id="panel" x1="146" y1="142" x2="986" y2="764" gradientUnits="userSpaceOnUse">
      <stop stop-color="#FFFFFF"/>
      <stop offset="1" stop-color="#FFF6F3"/>
    </linearGradient>
    <linearGradient id="metal" x1="210" y1="194" x2="942" y2="744" gradientUnits="userSpaceOnUse">
      <stop stop-color="#2A313A"/>
      <stop offset="0.48" stop-color="#485362"/>
      <stop offset="1" stop-color="#1E252C"/>
    </linearGradient>
    <linearGradient id="shine" x1="185" y1="182" x2="988" y2="774" gradientUnits="userSpaceOnUse">
      <stop stop-color="#EEF3F7"/>
      <stop offset="1" stop-color="#AAB7C4"/>
    </linearGradient>
    <radialGradient id="accentGlow" cx="0" cy="0" r="1" gradientUnits="userSpaceOnUse" gradientTransform="translate(902 198) rotate(116.6) scale(246 182)">
      <stop stop-color="#FF8A7F" stop-opacity="0.46"/>
      <stop offset="1" stop-color="#FF8A7F" stop-opacity="0"/>
    </radialGradient>
  </defs>

  <rect width="1200" height="960" rx="32" fill="url(#bg)"/>
  <circle cx="904" cy="190" r="132" fill="url(#accentGlow)"/>
  <circle cx="214" cy="742" r="108" fill="#FFE1DB" opacity="0.72"/>

  <rect x="92" y="108" width="1016" height="744" rx="42" fill="url(#panel)" stroke="rgba(235,177,173,0.42)" stroke-width="4"/>

  <g opacity="0.16" stroke="#FF756B" stroke-linecap="round">
    <path d="M152 178H282" stroke-width="10"/>
    <path d="M306 178H378" stroke-width="10"/>
    <path d="M398 178H492" stroke-width="10"/>
  </g>

  <g transform="translate(148 194)">
    <rect x="0" y="0" width="266" height="572" rx="28" fill="#FFFFFF" stroke="rgba(235,177,173,0.36)" stroke-width="3"/>
    <path d="M44 100H222" stroke="url(#metal)" stroke-width="12" stroke-linecap="round"/>
    <path d="M44 466H222" stroke="url(#metal)" stroke-width="12" stroke-linecap="round"/>
    <path d="M56 116V450" stroke="url(#metal)" stroke-width="12" stroke-linecap="round"/>
    <path d="M210 116V450" stroke="url(#metal)" stroke-width="12" stroke-linecap="round"/>
    <g stroke="url(#metal)" stroke-width="12" stroke-linecap="round" stroke-linejoin="round">
      <path d="M92 122V444"/>
      <path d="M132 122V444"/>
      <path d="M172 122V444"/>
      <path d="M92 170C108 148 116 148 132 170C146 190 158 190 172 170"/>
      <path d="M92 244C108 222 116 222 132 244C146 264 158 264 172 244"/>
      <path d="M92 318C108 296 116 296 132 318C146 338 158 338 172 318"/>
      <path d="M92 392C108 370 116 370 132 392C146 412 158 412 172 392"/>
    </g>
    <rect x="42" y="492" width="112" height="22" rx="11" fill="#FF756B" opacity="0.92"/>
    <rect x="164" y="492" width="58" height="22" rx="11" fill="#E9EEF4"/>
  </g>

  <g transform="translate(470 194)">
    <rect x="0" y="0" width="266" height="572" rx="28" fill="#FFFFFF" stroke="rgba(235,177,173,0.36)" stroke-width="3"/>
    <path d="M44 472H226" stroke="url(#metal)" stroke-width="14" stroke-linecap="round"/>
    <path d="M44 438L188 120" stroke="url(#metal)" stroke-width="14" stroke-linecap="round"/>
    <path d="M90 444L228 164" stroke="url(#shine)" stroke-width="9" stroke-linecap="round" opacity="0.92"/>
    <path d="M62 370L146 188" stroke="url(#shine)" stroke-width="8" stroke-linecap="round" opacity="0.78"/>
    <path d="M108 472V278" stroke="url(#metal)" stroke-width="12" stroke-linecap="round"/>
    <path d="M152 472V220" stroke="url(#metal)" stroke-width="12" stroke-linecap="round"/>
    <path d="M196 472V170" stroke="url(#metal)" stroke-width="12" stroke-linecap="round"/>
    <path d="M228 146C214 122 196 110 176 110" stroke="url(#metal)" stroke-width="12" stroke-linecap="round"/>
    <rect x="40" y="492" width="138" height="22" rx="11" fill="#1F2730"/>
    <rect x="188" y="492" width="38" height="22" rx="11" fill="#FFB1A9"/>
  </g>

  <g transform="translate(792 194)">
    <rect x="0" y="0" width="266" height="572" rx="28" fill="#FFFFFF" stroke="rgba(235,177,173,0.36)" stroke-width="3"/>
    <path d="M30 446H236" stroke="url(#metal)" stroke-width="14" stroke-linecap="round"/>
    <path d="M46 446V272" stroke="url(#metal)" stroke-width="12" stroke-linecap="round"/>
    <path d="M220 446V272" stroke="url(#metal)" stroke-width="12" stroke-linecap="round"/>
    <path d="M46 272H220" stroke="url(#metal)" stroke-width="12" stroke-linecap="round"/>
    <path d="M62 272L120 176" stroke="url(#shine)" stroke-width="10" stroke-linecap="round"/>
    <path d="M204 272L146 176" stroke="url(#shine)" stroke-width="10" stroke-linecap="round"/>
    <path d="M88 272L146 176L204 272" stroke="url(#metal)" stroke-width="14" stroke-linecap="round" stroke-linejoin="round"/>
    <path d="M78 360H190" stroke="url(#shine)" stroke-width="9" stroke-linecap="round"/>
    <path d="M78 402H190" stroke="url(#shine)" stroke-width="9" stroke-linecap="round"/>
    <rect x="42" y="492" width="98" height="22" rx="11" fill="#FF756B" opacity="0.88"/>
    <rect x="150" y="492" width="72" height="22" rx="11" fill="#E9EEF4"/>
  </g>
</svg>
