<?xml version="1.0" encoding="UTF-8"?> <svg xmlns="http://www.w3.org/2000/svg" width="174" height="174" viewBox="0 0 174 174" fill="none"><path d="M173.374 86.6871C173.374 134.563 134.563 173.374 86.6871 173.374C38.8111 173.374 0 134.563 0 86.6871C0 38.8111 38.8111 0 86.6871 0C134.563 0 173.374 38.8111 173.374 86.6871Z" fill="#FF756B"></path><g clip-path="url(#clip0_590_29)"><path d="M134.46 85.5693C134.46 111.332 113.412 132.218 87.4432 132.218C79.2022 132.218 71.4608 130.11 64.7218 126.418L38.6934 134.685L47.178 109.649C42.8998 102.623 40.4359 94.3724 40.4359 85.5662C40.439 59.8032 61.4803 38.918 87.4495 38.918C113.415 38.9242 134.46 59.8063 134.46 85.5693ZM87.4401 46.3565C65.6461 46.3565 47.9181 63.9502 47.9181 85.5787C47.9181 94.1601 50.7161 102.104 55.4471 108.569L50.5131 123.13L65.6961 118.305C71.9417 122.403 79.4145 124.788 87.4401 124.788C109.234 124.788 126.968 107.198 126.968 85.5693C126.975 63.9502 109.237 46.3565 87.4401 46.3565ZM111.186 96.3148C110.892 95.8433 110.124 95.556 108.975 94.9814C107.829 94.4068 102.155 91.6431 101.102 91.2684C100.041 90.8843 99.2723 90.6907 98.5041 91.8367C97.7453 92.9828 95.5344 95.556 94.8567 96.3242C94.1853 97.0893 93.5139 97.1861 92.3616 96.6208C91.2093 96.04 87.4932 94.8409 83.09 90.9467C79.6643 87.9114 77.3504 84.1734 76.6821 83.0274C76.0044 81.8844 76.6134 81.2661 77.1848 80.6978C77.7001 80.1825 78.3372 79.3612 78.9149 78.6898C79.4926 78.0246 79.6831 77.5531 80.0672 76.788C80.445 76.0229 80.2545 75.3578 79.9704 74.7801C79.6831 74.2055 77.3816 68.5845 76.4166 66.2955C75.4579 64.0096 74.4992 64.3874 73.8247 64.3874C73.1533 64.3874 72.3851 64.2937 71.6169 64.2937C70.8487 64.2937 69.5996 64.5717 68.5472 65.7177C67.4948 66.8638 64.5157 69.6275 64.5157 75.2547C64.5157 80.8882 68.6409 86.3188 69.2186 87.0807C69.7995 87.8396 77.1942 99.7655 88.9078 104.344C100.628 108.918 100.628 107.391 102.739 107.198C104.856 107.004 109.559 104.434 110.514 101.767C111.476 99.0878 111.476 96.7926 111.186 96.3148Z" fill="white"></path></g><defs><clipPath id="clip0_590_29"><rect width="95.7665" height="95.7665" fill="white" transform="translate(38.6934 38.918)"></rect></clipPath></defs></svg> 